<svg xmlns="http://www.w3.org/2000/svg" viewBox="0 0 97.707 97.707">
  <path fill="#F05033" d="M92.71 44.408L53.299 5c-2.667-2.667-6.99-2.667-9.656 0l-8.19 8.19 10.386 10.386a8.124 8.124 0 0110.282 10.349l10.01 10.01a8.125 8.125 0 118.63 13.4 8.125 8.125 0 01-13.4-8.63L51.17 38.514v26.88a8.125 8.125 0 11-5.654 0V38.217a8.124 8.124 0 01-4.41-10.672L30.85 17.29 5 43.14c-2.667 2.667-2.667 6.99 0 9.656l39.41 39.41c2.667 2.667 6.99 2.667 9.656 0l38.644-38.644c2.667-2.667 2.667-6.99 0-9.656z"/>
</svg>