<svg xmlns="http://www.w3.org/2000/svg" width="28" height="28" viewBox="0 0 24 24" fill="white">
  <path d="M12 2C6.48 2 2 6.58 2 12.26c0 4.53 2.87 8.37 6.84 9.73.5.1.68-.22.68-.48
  0-.24-.01-1.02-.01-1.85-2.78.62-3.37-1.36-3.37-1.36-.45-1.18-1.1-1.49-1.1-1.49
  -.9-.63.07-.62.07-.62 1 .07 1.53 1.05 1.53 1.05 .88 1.56 2.31 1.11 2.87.85
  .09-.66.34-1.11.62-1.37-2.22-.26-4.55-1.14-4.55-5.07
  0-1.12.39-2.03 1.03-2.75-.1-.26-.45-1.3.1-2.7 0 0 .84-.27 2.75 1.05
  .8-.23 1.66-.35 2.52-.35s1.72.12 2.52.35c1.9-1.32 2.74-1.05 2.74-1.05
  .55 1.4.2 2.44.1 2.7 .64.72 1.03 1.63 1.03 2.75
  0 3.94-2.34 4.81-4.57 5.06 .35.31.66.92.66 1.86
  0 1.34-.01 2.41-.01 2.74 0 .26.18.59.69.48
  A10.04 10.04 0 0022 12.26C22 6.58 17.52 2 12 2z"/>
</svg>