<svg xmlns="http://www.w3.org/2000/svg" viewBox="0 0 128 128">
  <rect width="128" height="128" fill="#F7DF1E"/>
  <path d="M89.6 99.3c2.6 4.2 6 7.3 12 7.3 5 0 8.2-2.5 8.2-6 0-4.2-3.3-5.7-8.9-8.1l-3.1-1.3c-9-3.8-15-8.6-15-18.7 0-9.3 7.1-16.4 18.2-16.4 7.9 0 13.6 2.7 17.7 9.9l-9.7 6.2c-2.1-3.8-4.4-5.3-8-5.3-3.6 0-5.9 2.3-5.9 5.3 0 3.7 2.3 5.2 7.6 7.5l3.1 1.3c10.6 4.5 16.6 9.1 16.6 19.5 0 11.2-8.8 17.3-20.6 17.3-11.6 0-19.1-5.5-22.8-12.7zM39.2 100.4c2 3.5 3.8 6.5 8.2 6.5 4.2 0 6.9-1.7 6.9-8.3V56.4h10.1v42.4c0 12.9-7.6 18.8-18.7 18.8-10.1 0-15.9-5.2-18.9-11.5z"/>
</svg>